Coordinates
version=1
nRows=24
nColumns=24
inDegrees=yes

Units are S.I. units (second, meters, Newtons, ...)
Angles are in degrees.

endheader
time	pelvis_tilt	pelvis_list	pelvis_rotation	pelvis_tx	pelvis_ty	pelvis_tz	hip_flexion_r	hip_adduction_r	hip_rotation_r	knee_angle_r	ankle_angle_r	subtalar_angle_r	mtp_angle_r	hip_flexion_l	hip_adduction_l	hip_rotation_l	knee_angle_l	ankle_angle_l	subtalar_angle_l	mtp_angle_l	lumbar_extension	lumbar_bending	lumbar_rotation
      6.44000000	     14.01873102	     -2.71522660	     12.34296499	      2.30146950	      0.75426791	     -0.30869314	     -5.07090478	      8.15624839	     -4.20971428	    -16.85546641	     25.77784775	      5.58615544	      0.00000000	     11.20366477	     -0.57035088	     10.60060384	    -72.77962458	     17.81072090	      0.20976417	      0.00000000	    -32.39043793	      8.58126594	     -2.44577027
      6.44500000	     14.07186493	     -2.64382350	     12.00072397	      2.30809216	      0.75473785	     -0.30860633	     -5.93936795	      8.13349102	     -4.08037827	    -16.40335444	     26.11100634	      6.08532518	      0.00000000	     11.88999822	     -0.44289188	     10.12570595	    -72.04393861	     18.43973767	     -0.00920833	      0.00000000	    -32.57295563	      8.35287140	     -2.08776631
      6.45000000	     14.12703000	     -2.59766109	     11.64533662	      2.31473014	      0.75511304	     -0.30852071	     -6.79360432	      8.12338134	     -3.96670200	    -15.97679842	     26.45061025	      6.59326313	      0.00000000	     12.54397259	     -0.36788173	      9.62986882	    -71.21222671	     19.02429131	     -0.19352532	      0.00000000	    -32.75102786	      8.14777439	     -1.71191532
      6.45500000	     14.18960751	     -2.56120790	     11.27892646	      2.32135340	      0.75538787	     -0.30843969	     -7.64757153	      8.11028840	     -3.86410370	    -15.55970685	     26.79311792	      7.11842580	      0.00000000	     13.16879102	     -0.32753742	      9.10772255	    -70.30724951	     19.56388713	     -0.35732697	      0.00000000	    -32.94173083	      7.95382140	     -1.34686355
      6.46000000	     14.26959378	     -2.51444515	     10.91309835	      2.32800186	      0.75561333	     -0.30839169	     -8.52918129	      8.07543563	     -3.77171600	    -15.13360603	     27.15611876	      7.70195702	      0.00000000	     13.72693302	     -0.28515623	      8.60504574	    -69.29193872	     19.99941042	     -0.48453423	      0.00000000	    -33.14542834	      7.75477956	     -0.96863202
      6.46500000	     14.36238744	     -2.48181042	     10.53105975	      2.33465676	      0.75576084	     -0.30837957	     -9.41610910	      8.03609451	     -3.69880149	    -14.72209378	     27.53113534	      8.31016766	      0.00000000	     14.23459494	     -0.27225316	      8.09025618	    -68.18684940	     20.38988999	     -0.59201246	      0.00000000	    -33.36513023	      7.57773050	     -0.58916365
      6.47000000	     14.45003240	     -2.48701429	     10.14002356	      2.34132453	      0.75579217	     -0.30834800	    -10.27669854	      8.02654602	     -3.62619582	    -14.34154599	     27.89228618	      8.87958354	      0.00000000	     14.72397132	     -0.32920580	      7.54751190	    -67.00346145	     20.77544326	     -0.68631698	      0.00000000	    -33.57049134	      7.43361989	     -0.20928111
      6.47500000	     14.54846375	     -2.48640060	      9.75104176	      2.34798378	      0.75575760	     -0.30835152	    -11.15048609	      7.99936977	     -3.54947156	    -13.95905159	     28.26651418	      9.46249633	      0.00000000	     15.16183529	     -0.38158885	      7.02649295	    -65.72791195	     21.09022692	     -0.74553500	      0.00000000	    -33.79115795	      7.28652993	      0.17553462
      6.48000000	     14.69950583	     -2.43932027	      9.39106837	      2.35467414	      0.75571553	     -0.30842955	    -12.10250425	      7.91806378	     -3.55723293	    -13.55545611	     28.68236844	     10.14468759	      0.00000000	     15.48378980	     -0.38384242	      6.54570471	    -64.34050725	     21.31948614	     -0.80666693	      0.00000000	    -34.06746819	      7.12418701	      0.47832875
      6.48500000	     14.76362333	     -2.52545026	      8.97732871	      2.36132868	      0.75545640	     -0.30845371	    -12.90289845	      7.94948792	     -3.44032080	    -13.21867340	     29.02031206	     10.65005267	      0.00000000	     15.90586862	     -0.54465619	      6.02841042	    -62.91686142	     21.61557120	     -0.78353579	      0.00000000	    -34.24576691	      7.05501197	      0.93249486
      6.49000000	     14.87608910	     -2.55097049	      8.55989136	      2.36800670	      0.75520538	     -0.30850622	    -13.77426219	      7.90951146	     -3.34335135	    -12.87232250	     29.40798151	     11.19842457	      0.00000000	     16.20538923	     -0.64933786	      5.51845848	    -61.37137360	     21.84313801	     -0.71002847	      0.00000000	    -34.48197876	      6.92978546	      1.33754912
      6.49500000	     15.05836170	     -2.53124816	      8.21284863	      2.37470358	      0.75496257	     -0.30867244	    -14.74293786	      7.82857576	     -3.38175033	    -12.49703576	     29.81949043	     11.84976386	      0.00000000	     16.37696875	     -0.69138681	      5.08511758	    -59.72073422	     22.00710893	     -0.64591226	      0.00000000	    -34.78691549	      6.81147677	      1.63916665
      6.50000000	     15.11818251	     -2.63268485	      7.79438608	      2.38136033	      0.75449880	     -0.30875343	    -15.52086373	      7.84051138	     -3.26028934	    -12.20038777	     30.16778810	     12.32099300	      0.00000000	     16.67743707	     -0.87458491	      4.61758815	    -58.03190714	     22.23773529	     -0.41939897	      0.00000000	    -34.96201925	      6.75483519	      2.09148658
      6.50500000	     15.22589284	     -2.69240017	      7.38874470	      2.38803908	      0.75404314	     -0.30888809	    -16.36535551	      7.80484861	     -3.18054280	    -11.89321790	     30.53804613	     12.80938535	      0.00000000	     16.86249471	     -1.01354556	      4.17132136	    -56.23291427	     22.44690831	     -0.12243874	      0.00000000	    -35.18847926	      6.67695479	      2.49263960
      6.51000000	     15.33512197	     -2.75940461	      7.00379320	      2.39471626	      0.75353076	     -0.30905397	    -17.20692461	      7.77196893	     -3.12650573	    -11.59362090	     30.89682357	     13.29781307	      0.00000000	     17.00441712	     -1.15196106	      3.77128640	    -54.34952137	     22.65630074	      0.26200168	      0.00000000	    -35.41350943	      6.61179630	      2.87331793
      6.51500000	     15.51542375	     -2.79560584	      6.67441224	      2.40141201	      0.75304298	     -0.30931236	    -18.14436082	      7.71464197	     -3.19153743	    -11.26546635	     31.26128488	     13.87372237	      0.00000000	     17.01331206	     -1.23755027	      3.45273227	    -52.36565905	     22.83463791	      0.66287862	      0.00000000	    -35.71093195	      6.55658756	      3.18232159
      6.52000000	     15.60444359	     -2.88310650	      6.30833839	      2.40809429	      0.75241368	     -0.30952142	    -18.94679603	      7.68783184	     -3.17794214	    -11.00041246	     31.59838172	     14.34301242	      0.00000000	     17.08902551	     -1.38117428	      3.13289206	    -50.32106368	     23.05480271	      1.26332463	      0.00000000	    -35.90980502	      6.51618730	      3.55407424
      6.52500000	     15.62906813	     -2.99418352	      5.93606777	      2.41476804	      0.75167283	     -0.30973044	    -19.65551773	      7.67368907	     -3.12629244	    -10.78222214	     31.93734304	     14.71505800	      0.00000000	     17.19934981	     -1.54749638	      2.83080914	    -48.21526290	     23.28160007	      2.04425070	      0.00000000	    -36.03712796	      6.49055613	      3.94145667
      6.53000000	     15.69470109	     -3.10169621	      5.59043957	      2.42146956	      0.75093982	     -0.30996473	    -20.42009296	      7.65974198	     -3.12075226	    -10.54635574	     32.24747738	     15.11836475	      0.00000000	     17.20898970	     -1.70288413	      2.58503252	    -46.02488436	     23.51099643	      2.88727235	      0.00000000	    -36.20222649	      6.47129896	      4.29892854
      6.53500000	     15.81952819	     -3.19826081	      5.28429264	      2.42820086	      0.75023297	     -0.31025078	    -21.26331556	      7.64026495	     -3.20081634	    -10.28913116	     32.53992730	     15.61062372	      0.00000000	     17.09777087	     -1.82830406	      2.42895909	    -43.75618260	     23.71710868	      3.73142407	      0.00000000	    -36.42531135	      6.46118836	      4.61910850
      6.54000000	     15.81853112	     -3.32145292	      4.96397294	      2.43492190	      0.74936665	     -0.31050549	    -21.92292402	      7.63318417	     -3.22632082	    -10.12857333	     32.84445446	     15.96625355	      0.00000000	     17.09348523	     -1.98444431	      2.27724456	    -41.45591244	     23.89820125	      4.78290720	      0.00000000	    -36.51036482	      6.45585262	      4.95432689
      6.54500000	     15.87893338	     -3.45235964	      4.66705429	      2.44169035	      0.74853507	     -0.31080258	    -22.66480618	      7.63435596	     -3.28204043	     -9.94382596	     33.09507124	     16.40941025	      0.00000000	     16.96488081	     -2.13618473	      2.20153590	    -39.09750473	     24.08032719	      5.78934990	      0.00000000	    -36.65169276	      6.47464295	      5.26769484
      6.55000000	     15.86118853	     -3.58509587	      4.37875523	      2.44848941	      0.74760082	     -0.31109083	    -23.29656843	      7.63314509	     -3.35114133	     -9.81939121	     33.36793537	     16.75795270	      0.00000000	     16.88780295	     -2.29074944	      2.14215710	    -36.72908016	     24.17813363	      6.88188751	      0.00000000	    -36.70013715	      6.48583861	      5.58970163
      6.55500000	     15.79546947	     -3.71831407	      4.09083042	      2.45538329	      0.74661074	     -0.31135784	    -23.87922411	      7.62655154	     -3.39840106	     -9.70588304	     33.56041555	     17.09250914	      0.00000000	     16.80857013	     -2.43858192	      2.13317614	    -34.33984871	     24.27617844	      7.90264930	      0.00000000	    -36.67479507	      6.48562672	      5.86265847
